<?xml version="1.0" standalone="no"?>
<!DOCTYPE svg PUBLIC "-//W3C//DTD SVG 20010904//EN"
 "http://www.w3.org/TR/2001/REC-SVG-20010904/DTD/svg10.dtd">
<svg version="1.0" xmlns="http://www.w3.org/2000/svg"
 width="200.000000pt" height="200.000000pt" viewBox="0 0 200.000000 200.000000"
 preserveAspectRatio="xMidYMid meet">
<metadata>
Created by potrace 1.14, written by Peter Selinger 2001-2017
</metadata>
<g transform="translate(0.000000,200.000000) scale(0.100000,-0.100000)"
fill="#000000" stroke="none">
<path d="M101 1715 c-19 -9 -43 -25 -53 -38 -50 -57 -49 -35 -46 -690 l3 -613
25 -36 c53 -78 -20 -73 957 -75 657 -2 879 0 900 9 38 16 69 45 93 85 19 33
20 51 17 646 -2 685 2 645 -75 697 l-36 25 -875 2 c-755 2 -881 0 -910 -12z
m1755 -50 c17 -3 42 -17 55 -31 l24 -26 3 -596 c2 -434 -1 -604 -9 -625 -6
-15 -24 -36 -39 -47 -28 -20 -46 -20 -899 -18 l-871 3 -27 28 -28 27 -3 610
-2 609 28 32 c23 26 40 34 78 38 64 8 1650 4 1690 -4z"/>
<path d="M770 1614 c0 -3 5 -14 10 -25 9 -15 7 -21 -6 -26 -10 -4 -19 -2 -22
5 -8 25 -34 42 -63 42 -29 0 -30 -1 -15 -22 29 -42 21 -65 -34 -93 -56 -28
-80 -32 -80 -11 0 34 -55 28 -67 -7 -13 -41 -11 -46 24 -77 l34 -30 -33 -14
c-18 -8 -44 -16 -58 -18 -23 -3 -25 0 -23 30 1 29 -2 33 -20 30 -26 -4 -36
-50 -16 -74 21 -26 94 -18 141 16 49 36 68 38 68 8 0 -18 2 -20 9 -9 14 21 -6
54 -27 46 -11 -4 -9 1 6 15 27 26 49 20 58 -15 8 -34 -1 -68 -24 -82 -16 -10
-23 -8 -40 8 -44 40 -86 4 -58 -50 8 -15 12 -31 9 -35 -4 -3 1 -6 10 -6 11 0
17 8 17 21 0 18 2 19 15 9 10 -9 15 -9 15 -1 0 6 5 11 11 11 5 0 8 -4 4 -9 -3
-5 -1 -12 5 -16 5 -3 10 1 10 9 0 19 11 21 27 5 15 -15 53 36 53 70 0 14 -14
52 -30 84 -25 45 -29 61 -20 77 13 25 42 40 66 36 165 -31 197 -24 199 44 1
29 -20 49 -52 50 -17 0 -20 -4 -16 -22 6 -22 5 -22 -24 5 -26 24 -63 37 -63
21z"/>
<path d="M1670 1590 c-25 -25 -25 -36 -2 -49 42 -24 -43 -52 -118 -39 -25 4
-85 26 -133 49 -108 51 -184 57 -254 21 -51 -27 -65 -51 -62 -104 3 -29 -1
-42 -14 -49 -9 -6 -17 -22 -17 -36 0 -25 1 -25 18 -10 25 23 64 21 114 -4 50
-25 113 -26 243 -4 172 30 170 30 197 0 12 -14 26 -35 30 -45 10 -26 -18 -54
-46 -45 -223 65 -398 34 -607 -109 -38 -27 -55 -32 -90 -30 l-44 2 30 -15 c38
-21 64 -51 72 -86 4 -21 11 -27 23 -24 42 11 67 -36 34 -64 -12 -10 -20 -10
-34 -1 -17 10 -30 7 -30 -9 0 -12 33 -16 73 -7 32 7 172 70 186 83 2 3 -6 13
-18 22 -26 21 -20 49 12 59 25 8 50 -21 41 -48 -5 -16 -3 -17 20 -6 18 8 25
17 21 29 -6 16 18 49 35 49 18 0 40 -33 35 -50 -3 -10 4 -33 17 -53 13 -19 31
-49 40 -66 10 -18 33 -38 51 -46 19 -8 39 -21 46 -29 10 -12 8 -17 -11 -29
-13 -8 -34 -18 -48 -22 -32 -10 -70 -35 -70 -46 0 -10 110 -5 148 7 16 5 27 1
36 -11 12 -17 14 -17 28 4 15 21 15 21 36 2 20 -16 72 -19 72 -3 0 3 -19 23
-42 43 -39 34 -42 40 -30 58 6 12 12 30 12 41 0 20 -2 20 -21 6 -12 -8 -27
-12 -35 -9 -11 4 -11 11 3 36 9 18 26 46 39 62 30 40 46 105 38 154 -5 34 -2
45 19 70 35 42 43 83 21 116 -30 45 -57 52 -214 53 -175 1 -155 -1 -174 18
-15 14 -16 13 -16 -6 0 -18 -4 -20 -22 -14 -13 3 -23 7 -24 8 -1 0 -6 10 -12
21 -10 19 -11 18 -17 -8 -9 -32 -23 -34 -59 -6 -35 27 -36 77 -1 111 21 21 32
24 72 22 58 -4 93 -21 93 -46 0 -23 20 -24 20 0 1 14 3 14 20 -6 11 -13 21
-18 25 -12 3 6 17 -2 31 -18 23 -25 25 -25 19 -4 -8 28 -4 28 45 -3 43 -27 61
-31 58 -13 -2 7 12 12 37 13 59 1 101 22 115 55 24 57 -21 109 -60 70z m-184
-322 c3 -5 3 -20 0 -34 -5 -20 -12 -25 -34 -22 -31 3 -42 38 -20 61 13 14 44
12 54 -5z m-121 -8 c13 -41 -43 -70 -64 -33 -13 25 5 53 34 53 15 0 26 -7 30
-20z m209 -26 c22 -8 20 -51 -2 -63 -25 -13 -52 5 -52 34 0 29 22 41 54 29z
m-270 -49 c18 -18 11 -41 -14 -55 -33 -18 -65 31 -38 58 16 16 33 15 52 -3z
m136 -15 c18 -33 -31 -65 -58 -38 -16 16 -15 33 3 52 18 18 41 11 55 -14z
m238 -2 c21 -21 14 -47 -14 -54 -36 -9 -60 15 -45 45 13 23 40 28 59 9z m-500
-10 c18 -18 14 -46 -9 -58 -26 -14 -49 3 -49 35 0 21 8 27 41 34 3 0 10 -4 17
-11z m345 -36 c15 -16 15 -20 2 -39 -15 -21 -29 -24 -52 -10 -25 16 -8 67 22
67 7 0 19 -8 28 -18z m-453 -14 c6 -18 4 -27 -11 -40 -23 -20 -46 -14 -54 13
-14 44 48 69 65 27z m560 -53 c18 -22 3 -55 -25 -55 -29 0 -47 27 -34 52 12
22 42 23 59 3z m-486 -21 c9 -8 16 -19 16 -24 0 -14 -30 -40 -46 -40 -16 0
-34 38 -27 57 3 6 12 14 21 16 10 3 18 5 19 6 1 0 9 -6 17 -15z m396 -54 c13
-25 -24 -59 -48 -44 -24 15 -27 45 -7 60 20 15 42 9 55 -16z"/>
<path d="M349 1552 c-52 -26 -61 -66 -57 -257 l3 -160 29 -3 c16 -2 33 1 38 6
10 10 11 113 4 284 -1 37 3 84 10 105 7 20 12 38 11 40 -2 1 -19 -5 -38 -15z"/>
<path d="M690 1475 c0 -8 9 -15 20 -15 26 0 26 -20 0 -27 -12 -3 -19 -11 -17
-17 6 -18 38 -19 51 -1 11 15 13 15 30 -4 24 -26 40 -27 26 -2 -14 26 -13 35
3 24 6 -5 24 -14 40 -21 26 -11 27 -10 22 11 -6 22 -4 23 49 21 31 -1 56 1 56
3 0 2 -15 12 -32 23 -36 22 -63 26 -52 9 5 -8 -7 -10 -39 -7 -29 3 -48 1 -50
-6 -3 -7 -15 -5 -37 7 -39 21 -70 22 -70 2z"/>
<path d="M910 1397 c0 -32 -2 -33 -31 -29 -22 3 -34 0 -40 -11 -10 -17 -42
-12 -60 9 -21 26 -44 17 -45 -18 0 -18 -3 -45 -6 -59 -5 -23 -3 -26 23 -26 28
0 29 7 3 37 -10 12 -10 18 0 33 13 16 14 16 38 -2 33 -27 63 -31 62 -8 -2 17
14 21 64 17 12 -1 25 6 28 14 3 9 14 16 23 16 10 0 26 7 37 15 19 14 19 14 -2
15 -12 0 -38 7 -58 15 l-36 15 0 -33z"/>
<path d="M957 1333 c-4 -3 -2 -13 5 -20 10 -12 5 -14 -29 -8 -38 5 -42 3 -50
-20 -8 -24 -9 -24 -37 -10 -37 20 -43 19 -56 -6 -15 -27 -6 -35 23 -20 18 10
28 9 52 -3 28 -15 30 -14 50 11 19 23 24 24 44 14 32 -18 55 -7 41 18 -8 16
-6 21 13 27 l22 8 -25 7 c-34 10 -45 10 -53 2z"/>
<path d="M1045 1282 c-6 -4 -16 -19 -22 -33 -9 -21 -17 -26 -38 -22 -15 3 -33
-1 -43 -10 -13 -12 -35 -15 -90 -13 -40 2 -75 6 -79 9 -3 4 -12 2 -18 -3 -14
-11 -45 -3 -45 11 0 20 -34 7 -66 -25 -45 -45 -44 -61 2 -41 51 21 53 20 47
-20 -7 -46 8 -45 47 5 25 31 35 38 45 30 26 -22 63 -21 78 1 14 19 17 19 50 6
21 -9 40 -11 48 -6 8 5 10 9 6 9 -4 0 -3 9 3 19 8 16 18 19 56 15 39 -5 45 -3
42 12 -2 13 9 24 35 36 20 10 37 20 37 23 0 8 -84 5 -95 -3z"/>
<path d="M257 1115 c7 -34 18 -45 50 -45 27 0 33 -19 29 -87 -3 -54 -27 -91
-68 -106 -27 -10 -22 -27 7 -27 17 0 29 -8 37 -25 13 -30 24 -32 33 -7 3 11
17 24 30 30 14 6 25 16 25 22 0 6 -4 9 -9 5 -11 -6 -34 29 -25 37 3 3 6 41 7
84 1 60 5 82 19 96 10 10 15 24 12 33 -5 12 -9 12 -23 -5 -9 -10 -31 -21 -50
-24 -27 -4 -37 0 -56 22 l-23 27 5 -30z"/>
<path d="M633 1123 c-20 -7 -15 -64 11 -119 26 -57 76 -100 125 -110 28 -6 31
-4 24 12 -3 11 -12 28 -19 39 -19 30 -25 97 -11 124 7 13 32 32 57 43 l45 18
-58 -3 c-39 -3 -67 -11 -87 -25 -28 -21 -30 -21 -42 -4 -17 23 -30 30 -45 25z"/>
<path d="M556 1080 c-39 -38 -85 -46 -137 -25 -13 5 -15 -3 -14 -50 2 -60 2
-60 57 -51 57 9 85 -6 100 -56 13 -42 13 -43 18 -13 3 18 17 37 38 51 24 17
29 25 20 31 -26 16 -39 42 -45 90 -3 26 -6 49 -7 49 0 1 -14 -11 -30 -26z"/>
<path d="M844 1091 c-23 -11 -45 -25 -50 -32 -13 -21 -5 -70 16 -104 18 -29
25 -64 21 -108 0 -12 -20 -27 -55 -42 -30 -13 -60 -33 -65 -44 -16 -30 -13
-34 11 -17 32 22 58 20 58 -4 0 -26 4 -25 46 6 33 26 40 23 34 -15 -1 -10 10
-5 33 12 41 31 54 33 78 11 10 -9 25 -14 34 -12 15 3 14 6 -5 31 -21 26 -21
29 -6 46 18 20 21 41 6 41 -5 0 -10 -5 -10 -11 0 -6 -10 -9 -22 -7 -25 3 -26
14 -15 125 8 69 -3 104 -39 125 -28 16 -31 16 -70 -1z"/>
<path d="M253 1044 c-3 -9 0 -40 7 -70 10 -42 17 -54 32 -54 12 0 16 4 12 12
-4 6 -7 34 -7 62 0 47 -9 65 -30 66 -4 0 -10 -7 -14 -16z"/>
<path d="M1285 1004 c-16 -9 -43 -23 -58 -32 -32 -16 -34 -13 50 -75 72 -52
69 -61 -17 -72 -50 -6 -69 -17 -70 -37 0 -5 5 -9 10 -9 6 -1 15 -3 20 -4 6 -1
13 -3 16 -4 4 0 1 -7 -5 -15 -9 -11 -4 -12 29 -6 22 4 43 4 46 -1 3 -5 22 1
42 14 21 12 47 27 57 33 11 6 22 22 23 35 2 13 8 28 13 33 15 17 10 27 -9 17
-30 -16 -45 3 -47 58 -2 79 -35 100 -100 65z"/>
<path d="M359 667 c-46 -36 -49 -126 -6 -163 15 -12 34 -21 44 -19 10 2 21 4
26 4 4 1 7 10 7 22 0 15 -5 19 -15 15 -8 -3 -21 2 -30 10 -32 32 -8 115 29
101 14 -5 17 -2 14 16 -4 26 -44 34 -69 14z"/>
<path d="M462 671 c-5 -3 -10 -45 -10 -93 0 -96 -4 -90 63 -90 51 0 56 2 53
20 -2 9 -10 18 -18 18 -8 1 -23 2 -33 3 -25 1 -18 36 8 37 11 1 25 2 31 3 12
1 15 30 2 32 -4 1 -18 2 -30 3 -13 0 -23 7 -23 16 0 15 4 16 45 19 12 1 20 8
20 19 0 15 -8 18 -50 18 -27 1 -53 -2 -58 -5z"/>
<path d="M590 671 c0 -5 9 -30 20 -56 11 -26 20 -64 20 -85 0 -22 5 -40 13
-43 26 -9 37 6 37 49 0 25 9 62 20 84 11 22 20 43 20 48 0 10 -50 11 -51 0 -1
-4 -3 -12 -4 -18 -1 -5 -3 -13 -4 -17 -1 -5 -8 3 -15 16 -13 24 -56 40 -56 22z"/>
<path d="M746 670 c-2 -5 0 -138 3 -170 1 -11 14 -15 54 -14 45 0 52 3 55 21
3 19 -1 21 -30 20 l-33 -2 -1 65 c-2 91 -2 89 -25 87 -11 -1 -22 -4 -23 -7z"/>
<path d="M891 659 c-23 -25 -31 -61 -24 -106 6 -37 44 -73 71 -68 9 2 23 4 30
4 24 2 50 60 46 104 -7 74 -79 113 -123 66z m67 -36 c7 -15 9 -54 3 -85 0 -5
-10 -8 -20 -8 -22 0 -32 22 -27 61 6 48 28 64 44 32z"/>
<path d="M1043 671 c-11 -7 -10 -162 1 -179 5 -8 13 -9 25 -2 15 7 18 19 15
52 l-4 43 21 -47 c23 -49 54 -68 67 -40 6 14 8 89 3 165 -1 20 -36 24 -43 5
-3 -7 -4 -28 -2 -45 1 -18 1 -33 -1 -33 -2 0 -13 20 -23 43 -18 40 -38 53 -59
38z"/>
<path d="M1275 671 c-12 -12 -3 -31 15 -31 18 0 20 -7 20 -74 0 -51 4 -76 13
-79 30 -10 37 6 37 79 0 41 3 73 8 73 21 -4 32 3 32 19 0 15 -9 17 -60 18 -34
0 -63 -2 -65 -5z"/>
<path d="M1425 670 c-8 -13 -2 -180 6 -181 5 -1 25 -1 44 -1 60 0 65 1 65 21
0 11 -7 18 -17 18 -42 0 -53 4 -53 18 0 8 3 15 8 16 19 2 56 10 59 13 2 2 1
10 -3 19 -3 10 -16 15 -32 14 -41 -3 -35 27 6 31 25 3 32 8 30 20 -3 13 -15
17 -56 18 -29 1 -54 -2 -57 -6z"/>
<path d="M1604 669 c-10 -16 -52 -174 -48 -180 7 -11 44 2 44 16 0 13 35 27
44 17 3 -3 6 -12 6 -21 0 -10 9 -16 26 -16 23 0 25 3 19 35 -3 19 -15 63 -26
97 -16 50 -24 61 -40 60 -11 -1 -22 -5 -25 -8z m35 -101 c1 -5 -3 -8 -9 -8 -5
0 -10 12 -9 28 0 24 1 25 9 7 5 -11 9 -23 9 -27z"/>
<path d="M325 432 c-6 -17 -7 -15 23 -31 27 -14 19 -35 -10 -25 -14 4 -18 2
-14 -5 10 -16 41 -14 56 4 15 18 5 35 -21 35 -10 0 -19 5 -19 10 0 9 14 14 33
11 4 0 7 3 7 8 0 15 -49 9 -55 -7z"/>
<path d="M400 441 c0 -5 7 -14 15 -21 8 -7 15 -18 14 -24 -3 -24 1 -36 13 -36
6 0 9 3 5 6 -3 4 0 22 8 41 19 46 19 50 -5 28 -18 -16 -20 -16 -26 -1 -6 17
-24 22 -24 7z"/>
<path d="M497 443 c-11 -11 -8 -85 3 -78 6 3 10 17 10 31 0 14 4 22 10 19 6
-3 10 -2 10 3 0 14 -26 33 -33 25z"/>
<path d="M545 424 c-19 -30 -12 -47 9 -19 13 18 13 17 11 -8 -2 -15 1 -29 6
-33 10 -6 12 1 12 41 0 55 -11 60 -38 19z"/>
<path d="M609 443 c0 -2 -1 -16 -1 -33 0 -48 1 -50 25 -50 37 0 47 13 41 51
-5 31 -10 35 -35 35 -16 0 -29 -1 -30 -3z m41 -18 c0 -8 -4 -15 -10 -15 -5 0
-10 7 -10 15 0 8 5 15 10 15 6 0 10 -7 10 -15z m10 -34 c0 -14 -18 -23 -30
-16 -6 4 -8 11 -5 16 8 12 35 12 35 0z"/>
<path d="M718 443 c-26 -6 -34 -51 -15 -71 9 -9 20 -12 24 -8 5 5 2 11 -4 13
-7 3 -13 13 -13 23 0 24 22 41 40 30 12 -7 13 -15 3 -40 -12 -33 0 -42 17 -11
14 27 13 37 -6 55 -16 17 -17 17 -46 9z"/>
<path d="M799 448 c-1 -2 -2 -22 -3 -45 -2 -42 -1 -43 32 -43 18 0 31 4 28 9
-3 5 -14 7 -25 4 -15 -4 -18 1 -16 32 1 20 -2 38 -7 41 -4 3 -8 4 -9 2z"/>
<path d="M926 431 c-34 -38 8 -86 54 -61 35 19 20 80 -20 80 -9 0 -25 -9 -34
-19z m52 -21 c4 -27 -17 -44 -35 -28 -16 13 -17 30 -1 46 17 17 32 10 36 -18z"/>
<path d="M1018 425 c-2 -11 -1 -31 3 -45 7 -25 7 -25 14 -3 4 12 17 24 29 26
21 4 21 4 -1 6 -14 0 -23 7 -23 17 0 8 5 12 10 9 6 -3 10 -2 10 4 0 19 -38 7
-42 -14z"/>
<path d="M1180 440 c0 -5 6 -9 13 -7 7 1 13 -10 15 -25 3 -22 0 -27 -12 -22
-10 4 -16 1 -16 -7 -1 -9 -4 -8 -11 4 -6 9 -7 26 -4 37 4 11 2 20 -4 20 -13 0
-23 -33 -15 -53 3 -9 19 -20 36 -26 37 -13 58 -14 39 -2 -9 6 -10 11 -2 15 18
12 13 54 -8 66 -25 13 -31 13 -31 0z"/>
<path d="M1248 426 c-5 -25 7 -66 19 -66 11 0 4 78 -7 85 -4 3 -10 -6 -12 -19z"/>
<path d="M1309 449 c-1 -2 -2 -15 -3 -29 0 -14 -5 -31 -10 -38 -13 -22 4 -29
20 -8 7 11 12 31 9 44 -4 22 -14 41 -16 31z"/>
<path d="M1351 408 c-20 -47 -18 -64 5 -33 18 24 17 24 43 1 25 -23 26 -20 6
27 -22 52 -33 53 -54 5z m34 2 c3 -5 1 -10 -4 -10 -6 0 -11 5 -11 10 0 6 2 10
4 10 3 0 8 -4 11 -10z"/>
<path d="M1436 442 c-3 -5 -5 -25 -4 -44 1 -29 5 -34 27 -36 19 -1 22 1 12 7
-8 5 -16 24 -17 41 -3 35 -9 46 -18 32z"/>
<path d="M1517 443 c-11 -10 -8 -83 3 -83 6 0 10 20 10 45 0 46 -2 50 -13 38z"/>
<path d="M1550 438 c0 -4 6 -8 14 -8 9 0 12 -7 9 -20 -3 -11 -2 -28 3 -37 6
-14 9 -8 13 22 4 24 11 39 19 38 6 -2 12 1 12 7 0 5 -16 9 -35 8 -19 -1 -35
-5 -35 -10z"/>
<path d="M1630 448 c0 -3 7 -19 16 -36 8 -18 13 -36 9 -42 -3 -5 -1 -10 4 -10
6 0 11 5 11 10 0 21 1 26 16 48 18 27 13 40 -6 17 -12 -14 -15 -14 -31 1 -11
10 -19 15 -19 12z"/>
</g>
</svg>
